<svg xmlns="http://www.w3.org/2000/svg" viewBox="0 0 324 318" width="324" height="318" role="img" aria-labelledby="sign-title"><title id="sign-title">Shamil signature</title><g fill="none" stroke="rgb(15, 23, 42)" stroke-linecap="round"><path d="M 62.156,214.855 C 67.269,213.089 67.166,212.855 72.176,210.856" stroke-width="5.616"/><path d="M 72.176,210.856 C 81.453,206.968 81.288,206.709 90.193,202.096" stroke-width="3.293"/><path d="M 90.193,202.096 C 102.875,195.403 102.635,195.161 114.539,187.243" stroke-width="2.498"/><path d="M 114.539,187.243 C 128.180,177.542 128.187,177.693 140.818,166.676" stroke-width="2.160"/><path d="M 140.818,166.676 C 153.419,156.288 153.097,156.119 164.373,144.396" stroke-width="2.165"/><path d="M 164.373,144.396 C 174.045,133.572 174.117,133.817 182.215,121.735" stroke-width="2.282"/><path d="M 182.215,121.735 C 188.466,112.846 188.240,113.005 192.762,103.263" stroke-width="2.562"/><path d="M 192.762,103.263 C 195.750,98.232 194.399,99.611 194.080,95.265" stroke-width="3.556"/><path d="M 194.080,95.265 C 189.941,90.021 191.839,91.282 184.939,89.362" stroke-width="4.287"/><path d="M 184.939,89.362 C 177.586,89.732 178.383,88.497 170.965,92.218" stroke-width="3.570"/><path d="M 170.965,92.218 C 160.956,96.176 161.106,95.921 151.980,101.740" stroke-width="2.919"/><path d="M 151.980,101.740 C 145.478,106.106 145.443,105.792 139.939,111.451" stroke-width="3.112"/><path d="M 139.939,111.451 C 134.857,115.759 135.415,115.818 131.854,121.163" stroke-width="3.387"/><path d="M 131.854,121.163 C 129.241,126.042 129.407,125.566 129.041,131.066" stroke-width="3.688"/><path d="M 129.041,131.066 C 128.858,137.562 128.801,137.087 130.975,143.253" stroke-width="3.595"/><path d="M 130.975,143.253 C 134.123,150.357 133.604,150.321 138.533,156.583" stroke-width="3.393"/><path d="M 138.533,156.583 C 144.320,163.759 143.835,164.068 150.398,170.675" stroke-width="3.054"/><path d="M 150.398,170.675 C 154.153,174.521 153.944,174.709 157.781,178.483" stroke-width="3.522"/><path d="M 157.781,178.483 C 165.182,186.315 165.052,186.422 172.195,194.479" stroke-width="2.892"/><path d="M 172.195,194.479 C 178.777,202.125 178.761,202.121 184.939,210.094" stroke-width="2.818"/><path d="M 184.939,210.094 C 189.930,216.502 189.895,216.503 194.432,223.234" stroke-width="3.029"/><path d="M 194.432,223.234 C 198.362,228.491 198.016,228.594 201.111,234.279" stroke-width="3.336"/><path d="M 201.111,234.279 C 203.114,238.472 203.021,238.299 203.748,242.848" stroke-width="3.798"/><path d="M 203.748,242.848 C 204.408,246.979 204.301,246.661 203.484,250.656" stroke-width="4.092"/><path d="M 203.484,250.656 C 202.566,253.785 202.782,253.454 200.496,255.797" stroke-width="4.430"/><path d="M 200.496,255.797 C 197.496,258.276 197.864,258.355 194.080,259.796" stroke-width="4.323"/><path d="M 194.080,259.796 C 190.907,261.246 191.080,261.132 187.664,261.510" stroke-width="4.413"/><path d="M 187.664,261.510 C 184.703,261.818 185.062,261.722 182.391,260.748" stroke-width="4.627"/><path d="M 182.391,260.748 C 178.742,259.522 180.176,259.724 178.611,257.321" stroke-width="5.164"/><path d="M 178.611,257.321 C 179.465,252.086 178.346,252.857 181.600,247.418" stroke-width="4.901"/><path d="M 181.600,247.418 C 184.647,241.858 184.211,241.708 188.104,236.564" stroke-width="3.843"/><path d="M 188.104,236.564 C 192.543,230.311 192.293,230.147 196.893,223.995" stroke-width="3.382"/><path d="M 196.893,223.995 C 200.863,218.072 200.937,218.123 204.891,212.189" stroke-width="3.346"/><path d="M 204.891,212.189 C 208.904,206.788 208.685,206.647 212.537,201.144" stroke-width="3.401"/><path d="M 212.537,201.144 C 215.971,195.954 215.891,195.934 218.865,190.480" stroke-width="3.567"/><path d="M 218.865,190.480 C 221.431,185.418 221.508,185.480 223.611,180.197" stroke-width="3.651"/><path d="M 223.611,180.197 C 225.555,175.388 225.606,175.421 227.215,170.485" stroke-width="3.771"/><path d="M 227.215,170.485 C 228.333,166.777 228.456,166.819 229.412,163.058" stroke-width="4.091"/><path d="M 229.412,163.058 C 230.824,160.166 230.267,160.112 231.082,157.155" stroke-width="4.404"/><path d="M 231.082,157.155 C 231.747,153.064 231.395,153.501 230.555,149.728" stroke-width="4.876"/><path d="M 230.555,149.728 C 229.226,145.839 229.638,147.161 226.863,145.348" stroke-width="5.379"/><path d="M 226.863,145.348 C 223.122,146.150 223.733,144.697 219.568,147.443" stroke-width="5.560"/><path d="M 219.568,147.443 C 217.125,148.455 217.102,148.340 214.822,149.728" stroke-width="4.959"/><path d="M 214.822,149.728 C 210.812,152.089 210.753,151.978 206.824,154.489" stroke-width="4.233"/><path d="M 206.824,154.489 C 202.150,157.393 202.110,157.326 197.420,160.201" stroke-width="3.870"/><path d="M 197.420,160.201 C 192.991,162.789 193.010,162.820 188.543,165.343" stroke-width="3.848"/><path d="M 188.543,165.343 C 184.242,167.911 184.202,167.836 179.842,170.294" stroke-width="3.867"/><path d="M 179.842,170.294 C 176.601,172.391 176.508,172.100 173.074,173.722" stroke-width="4.143"/><path d="M 173.074,173.722 C 166.197,175.196 169.789,174.962 166.219,175.436" stroke-width="4.824"/><path d="M 166.219,175.436 C 169.830,174.129 166.241,175.673 173.162,174.674" stroke-width="5.398"/><path d="M 173.162,174.674 C 176.891,175.826 176.817,175.272 180.193,177.721" stroke-width="4.548"/><path d="M 180.193,177.721 C 183.567,179.717 183.527,179.634 186.434,182.291" stroke-width="4.333"/><path d="M 186.434,182.291 C 190.154,185.862 190.247,185.715 193.553,189.718" stroke-width="3.972"/><path d="M 193.553,189.718 C 197.763,194.264 197.624,194.336 201.375,199.240" stroke-width="3.673"/><path d="M 201.375,199.240 C 204.222,203.548 204.399,203.405 206.824,207.999" stroke-width="3.843"/><path d="M 206.824,207.999 C 209.216,212.135 209.232,212.117 211.395,216.378" stroke-width="3.915"/><path d="M 211.395,216.378 C 213.057,219.789 213.127,219.752 214.646,223.234" stroke-width="4.159"/><path d="M 214.646,223.234 C 215.715,226.080 215.913,225.978 217.107,228.756" stroke-width="4.440"/><path d="M 217.107,228.756 C 218.620,234.142 218.439,231.316 220.096,233.707" stroke-width="5.031"/><path d="M 220.096,233.707 C 221.986,230.069 222.180,233.094 224.227,226.661" stroke-width="5.408"/><path d="M 224.227,226.661 C 226.114,222.261 226.556,223.119 229.236,219.806" stroke-width="5.124"/><path d="M 229.236,219.806 C 231.832,218.477 231.080,218.357 234.158,218.854" stroke-width="5.346"/><path d="M 234.158,218.854 C 236.481,219.960 236.534,219.239 238.641,221.329" stroke-width="4.983"/><path d="M 238.641,221.329 C 241.744,223.613 241.886,223.388 244.969,225.709" stroke-width="4.449"/><path d="M 244.969,225.709 C 247.249,228.173 247.457,227.327 250.066,228.756" stroke-width="4.550"/><path d="M 250.066,228.756 C 255.945,230.761 255.071,229.792 260.613,228.947" stroke-width="4.680"/><path d="M 260.613,228.947 C 267.093,224.668 267.459,226.286 273.094,219.806" stroke-width="3.538"/><path d="M 273.094,219.806 C 277.364,215.196 277.904,215.909 282.234,211.427" stroke-width="3.546"/><path d="M 282.234,211.427 C 284.845,208.899 284.747,209.483 287.859,208.380" stroke-width="4.589"/><path d="M 287.859,208.380 C 291.809,208.241 291.481,207.757 295.506,209.142" stroke-width="4.922"/></g></svg>
